<svg width="416" height="512" viewBox="0 0 416 512" fill="none" xmlns="http://www.w3.org/2000/svg">
<path d="M376 64H288V48C288 21.533 266.467 0 240 0H176C149.533 0 128 21.533 128 48V64H40C17.944 64 0 81.944 0 104V160C0 168.836 7.164 176 16 176H24.744L38.567 466.283C39.788 491.919 60.848 512 86.512 512H329.488C355.153 512 376.213 491.919 377.433 466.283L391.256 176H400C408.836 176 416 168.836 416 160V104C416 81.944 398.056 64 376 64ZM160 48C160 39.178 167.178 32 176 32H240C248.822 32 256 39.178 256 48V64H160V48ZM32 104C32 99.589 35.589 96 40 96H376C380.411 96 384 99.589 384 104V144C379.069 144 52.433 144 32 144V104ZM345.469 464.761C345.062 473.306 338.042 480 329.488 480H86.512C77.957 480 70.937 473.306 70.531 464.761L56.78 176H359.22L345.469 464.761Z" fill="white"/>
<path d="M208 448C216.836 448 224 440.836 224 432V224C224 215.164 216.836 208 208 208C199.164 208 192 215.164 192 224V432C192 440.836 199.163 448 208 448Z" fill="white"/>
<path d="M288 448C296.836 448 304 440.836 304 432V224C304 215.164 296.836 208 288 208C279.164 208 272 215.164 272 224V432C272 440.836 279.163 448 288 448Z" fill="white"/>
<path d="M128 448C136.836 448 144 440.836 144 432V224C144 215.164 136.836 208 128 208C119.164 208 112 215.164 112 224V432C112 440.836 119.163 448 128 448Z" fill="white"/>
</svg>
